<?xml version="1.0" standalone="no"?>
<!DOCTYPE svg PUBLIC "-//W3C//DTD SVG 20010904//EN"
 "http://www.w3.org/TR/2001/REC-SVG-20010904/DTD/svg10.dtd">
<svg version="1.0" xmlns="http://www.w3.org/2000/svg"
 width="880.000000pt" height="612.000000pt" viewBox="0 0 880.000000 612.000000"
 preserveAspectRatio="xMidYMid meet">

<g transform="translate(0.000000,612.000000) scale(0.100000,-0.100000)"
fill="#000000" stroke="none">
<path d="M6910 5709 c-30 -5 -75 -16 -100 -23 -25 -8 -82 -19 -127 -26 -386
-53 -683 -261 -852 -597 -145 -290 -213 -641 -261 -1363 -36 -540 -53 -727
-86 -925 -23 -135 -64 -317 -80 -347 -13 -24 -17 -26 -46 -17 -132 38 -602 74
-838 64 -573 -23 -1129 -119 -1604 -276 -424 -140 -658 -305 -607 -428 25 -58
37 -62 119 -41 l73 19 28 -31 27 -31 270 71 c600 158 960 230 1354 273 153 17
563 17 660 1 95 -16 286 -80 377 -125 167 -84 341 -227 447 -367 61 -79 63
-84 38 -78 -30 8 -27 1 6 -16 27 -14 112 -141 112 -168 0 -7 -17 4 -37 24
-153 145 -419 261 -751 328 -728 146 -1589 79 -2082 -162 l-105 -52 100 -7
c101 -7 147 -19 225 -59 40 -21 48 -21 98 -10 48 10 59 10 94 -6 37 -17 45
-17 166 0 515 68 918 58 1379 -35 l152 -31 31 36 c18 19 61 50 98 68 57 28 78
33 164 36 85 4 109 1 181 -22 110 -34 196 -86 282 -171 70 -69 140 -174 166
-248 7 -20 15 -37 19 -37 10 0 69 125 94 197 43 127 59 266 53 458 -6 181 -20
265 -67 403 -49 145 -145 275 -225 303 -24 9 -34 18 -31 29 52 181 74 509 90
1305 13 603 61 946 172 1208 121 290 330 455 619 492 43 5 54 3 69 -14 18 -20
18 -20 -5 -25 -13 -3 -58 -12 -99 -21 -339 -70 -551 -385 -629 -932 -32 -225
-41 -369 -56 -958 -15 -571 -29 -775 -65 -957 -11 -53 -20 -98 -20 -101 0 -3
10 -7 23 -11 33 -8 101 -64 136 -112 130 -176 197 -512 160 -804 -13 -106 -42
-225 -74 -295 l-24 -54 28 -66 28 -66 36 68 c143 274 157 701 31 1022 -48 122
-141 238 -211 263 -22 8 -32 17 -29 28 10 33 36 179 45 250 17 129 31 429 41
885 10 475 20 633 51 850 58 408 177 672 368 819 79 61 150 94 259 122 l95 24
44 -21 c129 -63 265 16 309 178 36 134 -17 260 -126 301 -42 15 -122 20 -180
11z"/>
<path d="M7249 5583 c64 -80 65 -199 1 -310 -43 -74 -96 -108 -172 -108 -32 0
-58 -1 -58 -2 0 -9 88 -45 124 -49 153 -21 289 168 247 343 -19 77 -73 134
-150 158 -23 7 -22 6 8 -32z"/>
<path d="M2570 4860 c-671 -40 -1044 -210 -1141 -519 -28 -89 -28 -226 -1
-342 70 -291 285 -636 647 -1039 121 -134 387 -398 525 -520 l84 -75 -34 60
c-18 33 -61 112 -95 175 -35 63 -76 138 -93 167 l-31 52 47 29 c200 127 576
298 593 270 6 -9 0 -17 -19 -25 -15 -7 -83 -37 -152 -68 -112 -50 -307 -153
-353 -187 -17 -13 -11 -26 88 -198 84 -147 117 -196 163 -238 83 -77 100 -84
69 -30 -14 23 -73 125 -131 225 l-105 183 95 56 c116 68 352 183 384 186 27 3
50 -33 216 -337 57 -104 104 -185 104 -178 0 7 -20 82 -45 167 -25 86 -45 160
-45 166 0 8 -88 262 -115 331 -5 13 12 21 92 44 209 59 399 99 381 80 -4 -4
-65 -22 -135 -40 -231 -59 -246 -64 -240 -88 3 -12 37 -114 75 -226 54 -157
89 -240 152 -358 46 -85 84 -152 87 -150 7 7 -104 380 -162 542 -31 86 -54
160 -51 163 8 7 276 82 296 82 20 0 35 -35 116 -270 50 -146 54 -152 54 -105
0 76 -27 363 -40 423 -7 30 -8 58 -4 62 11 11 310 48 434 54 l95 5 -115 -13
c-224 -26 -307 -38 -319 -45 -23 -14 26 -261 86 -439 31 -89 57 -161 59 -159
9 8 -18 322 -35 427 -11 63 -17 118 -13 122 8 7 225 36 307 40 l49 3 22 -105
23 -105 0 107 c1 95 3 107 20 113 23 7 17 52 -8 58 -9 3 13 5 49 4 36 0 55 -2
43 -4 -13 -2 -23 -8 -23 -13 0 -20 13 -40 26 -40 7 0 18 -19 25 -42 17 -64 49
-227 49 -251 0 -15 3 -18 11 -10 7 7 8 57 2 158 -6 115 -5 149 4 152 7 3 132
4 278 2 146 -2 265 -3 265 -1 0 12 -102 45 -132 43 -25 -1 -59 9 -106 33 -75
38 -293 116 -323 116 -13 0 -20 10 -24 38 -4 20 -22 105 -40 187 -18 83 -32
151 -31 152 8 10 434 24 628 22 135 -2 245 -3 244 -1 -2 1 -77 14 -167 28
-155 25 -177 26 -404 20 -132 -3 -277 -9 -323 -13 -79 -6 -83 -7 -78 -27 16
-57 77 -369 73 -372 -2 -3 -22 -2 -44 2 l-40 6 -13 82 c-7 44 -25 133 -41 196
-15 63 -27 116 -25 117 9 9 334 23 556 24 l275 1 -100 18 c-124 22 -348 48
-487 56 l-104 7 -49 146 c-26 80 -60 179 -75 219 l-28 72 61 0 c34 0 262 -9
507 -20 245 -11 508 -22 585 -25 l140 -5 -110 25 c-88 20 -168 27 -400 39
-406 21 -876 39 -881 33 -2 -2 11 -44 29 -93 52 -136 129 -376 122 -382 -3 -3
-21 -1 -40 4 l-36 9 -79 238 c-44 130 -80 240 -80 244 0 8 350 -3 859 -28 227
-11 415 -18 417 -17 5 5 -520 103 -791 148 -823 136 -1581 199 -2055 170z
m1260 -270 c0 -6 -66 -10 -177 -10 -98 0 -208 -3 -245 -6 l-67 -7 40 -56 c101
-139 269 -406 269 -426 0 -3 -17 -5 -39 -5 -37 0 -39 2 -71 63 -65 122 -163
276 -255 402 -12 17 -25 36 -29 43 -6 9 54 12 283 12 187 0 291 -4 291 -10z
m-901 -23 c9 -11 -10 -16 -102 -26 -153 -17 -257 -33 -257 -41 0 -4 28 -45 63
-91 77 -103 180 -251 237 -342 35 -56 40 -71 29 -78 -30 -19 -58 -9 -82 29
-93 147 -228 347 -283 420 l-65 87 27 7 c16 4 84 14 153 23 70 8 140 16 156
18 69 9 113 6 124 -6z m989 -124 c80 -143 185 -344 181 -348 -2 -2 -86 -5
-186 -6 l-183 -3 -59 99 c-32 55 -95 152 -139 215 -44 63 -78 118 -76 122 3 4
97 8 209 8 l204 0 49 -87z m-841 -58 c96 -126 239 -333 232 -338 -5 -4 -322
-47 -324 -44 -121 184 -172 259 -236 344 -44 58 -79 106 -79 108 0 1 51 10
113 19 61 9 123 18 137 20 63 10 71 4 157 -109z m-1003 -101 c-66 -82 -79
-124 -78 -259 1 -92 6 -134 21 -183 23 -69 22 -71 -39 -86 -27 -6 -28 -4 -55
81 -24 76 -28 104 -28 208 0 110 2 125 27 178 15 32 50 79 79 108 l52 50 28
-27 29 -27 -36 -43z m284 -210 l153 -169 -43 -12 c-24 -6 -110 -30 -192 -53
-114 -31 -151 -38 -157 -28 -12 19 -29 130 -29 190 0 30 7 77 15 104 17 59 73
146 89 141 6 -2 80 -80 164 -173z m1807 -124 c3 -5 3 -10 -2 -10 -15 0 -281
-39 -347 -51 l-65 -11 20 -46 c11 -26 36 -91 54 -144 l34 -98 -44 0 -43 0 -28
83 c-15 45 -40 112 -55 149 l-27 67 51 11 c63 12 381 58 419 59 15 1 30 -3 33
-9z m92 -205 c29 -71 52 -136 53 -144 0 -10 -9 -12 -37 -7 -21 3 -104 6 -184
6 l-145 0 -42 112 c-23 61 -39 114 -36 117 8 8 276 50 309 48 29 -2 32 -7 82
-132z m-822 94 c4 -6 5 -12 3 -14 -3 -4 -361 -85 -373 -85 -3 0 21 -53 54
-117 80 -162 80 -159 34 -174 -21 -7 -38 -8 -40 -3 -2 6 -35 74 -73 153 -39
79 -69 145 -67 147 3 3 432 102 449 103 4 1 10 -4 13 -10z m90 -156 c21 -43
44 -90 51 -104 l11 -25 -144 -33 c-79 -18 -150 -35 -158 -37 -10 -4 -30 26
-65 96 -28 56 -49 104 -46 107 7 7 250 65 301 72 6 0 28 -34 50 -76z m-827
-26 c9 -10 1 -16 -36 -25 -99 -26 -477 -145 -486 -152 -5 -5 29 -79 78 -169
47 -88 86 -164 86 -168 0 -9 -69 -38 -75 -31 -6 6 -195 363 -195 369 0 9 571
187 606 188 6 1 16 -5 22 -12z m135 -172 c37 -52 70 -100 72 -107 3 -9 -26
-24 -85 -46 -49 -18 -160 -62 -246 -98 -87 -36 -161 -61 -165 -57 -20 20 -138
248 -131 255 4 3 97 34 207 68 110 34 211 65 225 70 47 16 56 10 123 -85z"/>
<path d="M2825 1351 c-135 -33 -224 -142 -233 -286 -6 -89 9 -158 54 -250 138
-283 484 -442 705 -324 285 152 169 623 -198 808 -109 55 -234 74 -328 52z
m343 -252 c139 -69 216 -237 168 -364 -70 -181 -336 -131 -432 80 -99 216 60
387 264 284z"/>
<path d="M3034 1045 c-7 -19 -14 -52 -14 -73 0 -43 47 -148 80 -177 20 -18 20
-17 -2 31 -29 66 -30 158 -1 207 18 30 19 36 6 41 -35 14 -54 6 -69 -29z"/>
<path d="M5265 1346 c-66 -21 -101 -43 -143 -91 -162 -184 -59 -522 214 -704
104 -70 186 -96 304 -96 84 0 102 3 152 28 244 120 226 474 -37 715 -140 128
-351 192 -490 148z m368 -249 c57 -34 123 -106 149 -165 27 -61 30 -164 5
-209 -70 -131 -238 -131 -364 -1 -124 128 -125 320 -2 386 58 31 147 27 212
-11z"/>
<path d="M5474 1045 c-7 -19 -14 -52 -14 -73 0 -43 47 -148 80 -177 20 -18 19
-16 -2 31 -30 66 -30 157 0 208 12 21 22 39 22 42 0 2 -16 4 -36 4 -31 0 -37
-4 -50 -35z"/>
<path d="M3578 1090 c141 -246 86 -502 -131 -610 l-62 -31 49 6 c190 21 306
194 267 397 -15 76 -68 190 -111 238 l-32 35 20 -35z"/>
<path d="M6085 978 c-3 -9 -1 -50 5 -92 26 -174 -40 -315 -187 -398 -65 -37
-57 -46 20 -24 200 58 282 273 187 490 -14 32 -19 37 -25 24z"/>
</g>
</svg>
